# xmcd
#
# Track frame offsets: 
#        150
#        21390
#        41442
#        54942
#        72467
#        85692
#        110172
#        127382
#        142912
#        156317
#
# Disc length: 2292 seconds
#
# Revision: 0
# Processed by: cddbd v1.5.2PL0 Copyright (c) Steve Scherf et al.
# Submitted via: ExactAudioCopyFreeDBPlugin 1.0
#
DISCID=8e08f20a
DTITLE=Funky Brown - These Songs Will Last Forever (2016 Remastered) 
DYEAR=1976
DGENRE=Soul
TTITLE0=This Song Will Last Forever
TTITLE1=Let's Make A Baby
TTITLE2=Sharing The Night Together
TTITLE3=You'll Never Find Another Love Like Mine
TTITLE4=Nice and Slow (Vocal)
TTITLE5=Don't Leave Me This Way
TTITLE6=Feelings
TTITLE7=Kiss and Say Goodbye
TTITLE8=Nice and Slow (Instrumental)
TTITLE9=For The Love Of You
EXTD=
EXTT0=
EXTT1=
EXTT2=
EXTT3=
EXTT4=
EXTT5=
EXTT6=
EXTT7=
EXTT8=
EXTT9=
PLAYORDER=
